<svg viewBox="0 0 1414 1300" xmlns="http://www.w3.org/2000/svg" xmlns:xlink="http://www.w3.org/1999/xlink" width="1414.003418" height="1300.000000" fill="none" customFrame="#000000">
	<path id="Слияние" d="M308.497 316.201L702.534 4.3292L706 0L707.002 0.792831L708.003 0L711.47 4.3292L1414 560.37L1414 725.742L1255.5 598.827L1255.5 1300L1131.5 1300L1131.5 499.542L707.002 159.653L308.497 478.731L308.497 1176L481.497 1176L481.497 500L797.497 500C809.915 500.016 822.205 500.907 834.369 502.672C839.251 503.381 844.112 504.231 848.953 505.221C857.306 506.931 865.533 509.046 873.633 511.567L873.64 511.569C881.616 514.052 889.47 516.928 897.201 520.198C903.735 522.962 910.132 525.985 916.392 529.269C924.793 533.676 932.949 538.551 940.858 543.895C947.162 548.153 953.254 552.672 959.136 557.451C966.009 563.037 972.594 568.977 978.89 575.274C985.191 581.574 991.135 588.164 996.724 595.043C1001.5 600.919 1006.01 607.007 1010.27 613.305C1015.62 621.225 1020.5 629.391 1024.91 637.804L1024.91 637.808C1028.19 644.057 1031.21 650.442 1033.97 656.962C1037.24 664.701 1040.12 672.561 1042.6 680.545C1045.12 688.641 1047.23 696.863 1048.94 705.211C1049.93 710.048 1050.78 714.905 1051.49 719.783L1051.49 719.784C1053.27 732.06 1054.16 744.466 1054.16 757C1054.16 771.876 1052.92 786.536 1050.42 800.981C1048.92 809.691 1046.96 818.322 1044.55 826.875C1041.68 837.051 1038.21 846.975 1034.14 856.647C1029.39 867.92 1023.83 878.849 1017.45 889.435C1012 898.484 1006.04 907.134 999.578 915.388L999.574 915.393C992.213 924.787 984.196 933.667 975.521 942.031C966.69 950.545 957.353 958.358 947.509 965.469L947.508 965.47C939.707 971.105 931.587 976.299 923.149 981.053L1090.49 1295.77L927.594 1297.2L776.48 1013L615.497 1013L615.497 1176L615.497 1300L184.497 1300L184.497 578.017L6.10352e-05 725.742L0 560.37L184.497 414.344L184.497 172L308.497 172L308.497 316.201ZM615.497 879L615.497 634L797.497 634Q810.858 634 823.588 636.835L823.592 636.835L823.593 636.836C830.736 638.426 837.73 640.687 844.575 643.616Q854.107 647.696 862.683 653.252C869.988 657.984 876.772 663.52 883.036 669.858C888.655 675.544 893.636 681.655 897.979 688.189C902.27 694.646 905.938 701.516 908.982 708.799C911.717 715.341 913.862 722.018 915.417 728.829C917.471 737.819 918.497 747.042 918.497 756.5C918.497 765.958 917.471 775.182 915.417 784.171L915.417 784.172C913.861 790.983 911.716 797.659 908.982 804.201C905.938 811.484 902.271 818.353 897.98 824.809C893.637 831.344 888.656 837.455 883.036 843.142C876.772 849.48 869.988 855.015 862.684 859.747C856.966 863.452 850.93 866.664 844.575 869.384C837.73 872.313 830.736 874.574 823.593 876.164C815.105 878.055 806.406 879 797.497 879L615.497 879Z" fill="rgb(44,62,80)" fill-rule="evenodd" />
</svg>
