<svg viewBox="0 0 1414 1618.65" xmlns="http://www.w3.org/2000/svg" xmlns:xlink="http://www.w3.org/1999/xlink" width="1414.003418" height="1618.653564" fill="none" customFrame="#000000">
	<path id="Слияние" d="M702.534 4.3292L308.497 316.201L308.497 172L184.497 172L184.497 414.344L0 560.37L6.10352e-05 725.742L184.497 578.017L184.497 1300L615.497 1300L615.497 1176L615.497 1013L776.48 1013L927.594 1297.2L1090.49 1295.77L923.149 981.053C931.587 976.299 939.707 971.105 947.508 965.47L947.509 965.469C957.353 958.358 966.69 950.545 975.521 942.031C984.196 933.667 992.213 924.787 999.574 915.393L999.578 915.388C1006.04 907.134 1012 898.484 1017.45 889.435C1023.83 878.849 1029.39 867.92 1034.14 856.647C1038.21 846.975 1041.68 837.051 1044.55 826.875C1046.96 818.322 1048.92 809.691 1050.42 800.981C1052.92 786.536 1054.16 771.876 1054.16 757C1054.16 744.466 1053.27 732.06 1051.49 719.784L1051.49 719.783C1050.78 714.905 1049.93 710.048 1048.94 705.211C1047.23 696.863 1045.12 688.641 1042.6 680.545C1040.12 672.561 1037.24 664.701 1033.97 656.962C1031.21 650.442 1028.19 644.057 1024.91 637.808L1024.91 637.804C1020.5 629.391 1015.62 621.225 1010.27 613.305C1006.01 607.007 1001.5 600.919 996.724 595.043C991.135 588.164 985.191 581.574 978.89 575.274C972.594 568.977 966.009 563.037 959.136 557.451C953.254 552.672 947.162 548.153 940.858 543.895C932.949 538.551 924.793 533.676 916.392 529.269C910.132 525.985 903.735 522.962 897.201 520.198C889.47 516.928 881.616 514.052 873.64 511.569L873.633 511.567C865.533 509.046 857.306 506.931 848.953 505.221C844.112 504.231 839.251 503.381 834.369 502.672C822.205 500.907 809.915 500.016 797.497 500L481.497 500L481.497 1176L308.497 1176L308.497 478.731L707.002 159.653L1131.5 499.542L1131.5 1300L1255.5 1300L1255.5 598.827L1414 725.742L1414 560.37L711.47 4.3292L708.003 0L707.002 0.792831L706 0L702.534 4.3292ZM615.497 634L615.497 879L797.497 879C806.406 879 815.105 878.055 823.593 876.164C830.736 874.574 837.73 872.313 844.575 869.384C850.93 866.664 856.966 863.452 862.684 859.747C869.988 855.015 876.772 849.48 883.036 843.142C888.656 837.455 893.637 831.344 897.98 824.809C902.271 818.353 905.938 811.484 908.982 804.201C911.716 797.659 913.861 790.983 915.417 784.172L915.417 784.171C917.471 775.182 918.497 765.958 918.497 756.5C918.497 747.042 917.471 737.819 915.417 728.829C913.862 722.018 911.717 715.341 908.982 708.799C905.938 701.516 902.27 694.646 897.979 688.189C893.636 681.655 888.655 675.544 883.036 669.858C876.772 663.52 869.988 657.984 862.683 653.252Q854.107 647.696 844.575 643.616C837.73 640.687 830.736 638.426 823.593 636.836L823.592 636.835L823.588 636.835L823.586 636.834Q810.857 634 797.497 634L615.497 634ZM1004.67 1556.63Q1021.51 1526.16 1021.51 1482.31Q1021.51 1438.38 1004.67 1407.99Q993.226 1387.17 976.166 1373.22Q968.255 1366.74 959.135 1361.75Q954.145 1358.99 948.945 1356.71Q924.243 1345.88 894.797 1345.88Q864.546 1345.88 839.379 1357.19Q834.744 1359.28 830.28 1361.75Q821.845 1366.4 814.432 1372.33Q796.709 1386.51 784.833 1407.99Q768.081 1438.38 768.081 1482.31Q768.081 1525.89 784.833 1556.36Q796.517 1577.45 813.862 1591.58Q821.52 1597.82 830.28 1602.7Q834.969 1605.31 839.847 1607.49Q864.827 1618.65 894.797 1618.65Q924.522 1618.65 949.413 1607.68Q954.37 1605.5 959.135 1602.88Q968.511 1597.71 976.61 1591.01Q993.375 1577.12 1004.67 1556.63ZM248.707 1615L248.707 1349.54L184.636 1349.54L184.636 1615L248.707 1615ZM288.978 1349.54L288.978 1615L353.049 1615L353.049 1524.2L385.969 1524.2L434.407 1615L504.538 1615L449.474 1514Q465.035 1506.88 475.571 1495.22Q479.923 1490.4 483.418 1484.81Q495.448 1465.47 495.448 1438.03Q495.448 1410.67 483.597 1390.89Q479.438 1383.86 474.033 1377.98Q464.147 1367.23 450.091 1360.32Q428.437 1349.54 398.584 1349.54L288.978 1349.54ZM353.049 1473.58L384.772 1473.58Q399.208 1473.58 409.01 1469.84Q416.909 1466.75 421.741 1461.06Q422.905 1459.69 423.892 1458.16Q428.971 1450.23 428.971 1438.03Q428.971 1425.64 423.892 1417.53Q422.774 1415.74 421.422 1414.16Q416.635 1408.54 408.921 1405.41Q399.119 1401.31 384.683 1401.31L353.049 1401.31L353.049 1473.58ZM530.583 1349.54L530.583 1615L594.654 1615L594.654 1543L620.318 1510.65L686.527 1615L763.163 1615L667.458 1468.06L761.47 1349.54L685.904 1349.54L598.129 1461.73L594.654 1461.73L594.654 1349.54L530.583 1349.54ZM1058.9 1349.54L1058.9 1615L1233.47 1615L1233.47 1562.87L1122.97 1562.87L1122.97 1349.54L1058.9 1349.54ZM948.62 1438.47Q956.016 1456.29 956.016 1482.31Q956.016 1508.24 948.62 1526.16Q941.873 1542.61 929.656 1551.77Q928.642 1552.54 927.59 1553.25Q926.53 1553.96 925.438 1554.62Q912.467 1562.42 894.797 1562.42Q877.262 1562.42 864.281 1554.74Q863.078 1554.02 861.915 1553.25Q861.074 1552.67 860.258 1552.07Q847.83 1542.88 840.974 1526.16Q833.667 1508.24 833.667 1482.31Q833.667 1456.29 840.974 1438.47Q847.897 1421.5 860.5 1412.37Q861.199 1411.86 861.915 1411.38Q863.257 1410.47 864.652 1409.66Q877.512 1402.11 894.797 1402.11Q912.218 1402.11 925.071 1409.78Q926.353 1410.54 927.59 1411.38Q928.512 1412 929.406 1412.65Q941.804 1421.76 948.62 1438.47Z" fill="rgb(243,156,18)" fill-rule="evenodd" />
</svg>
